<?xml version="1.0" standalone="no"?>
<!DOCTYPE svg PUBLIC "-//W3C//DTD SVG 20010904//EN"
 "http://www.w3.org/TR/2001/REC-SVG-20010904/DTD/svg10.dtd">
<svg version="1.0" xmlns="http://www.w3.org/2000/svg"
 width="146.000000pt" height="115.000000pt" viewBox="0 0 146.000000 115.000000"
 preserveAspectRatio="xMidYMid meet">

<g transform="translate(0.000000,115.000000) scale(0.100000,-0.100000)"
fill="#000000" stroke="none">
<path d="M930 910 c0 -5 5 -10 10 -10 6 0 10 5 10 10 0 6 -4 10 -10 10 -5 0
-10 -4 -10 -10z"/>
<path d="M1100 910 c0 -5 5 -10 10 -10 6 0 10 -7 10 -15 0 -11 -7 -13 -29 -9
-21 5 -34 1 -50 -15 -45 -45 -11 -89 68 -89 28 0 51 4 51 9 0 5 -4 9 -10 9 -6
0 -10 28 -10 65 0 58 -2 65 -20 65 -11 0 -20 -4 -20 -10z m13 -72 c22 -34 -36
-66 -62 -34 -9 11 -10 20 -1 36 13 25 47 24 63 -2z"/>
<path d="M20 879 c0 -17 4 -28 10 -24 6 3 10 13 10 21 0 8 7 14 15 14 11 0 15
-12 15 -50 0 -27 -4 -50 -10 -50 -5 0 -10 -4 -10 -10 0 -5 14 -10 30 -10 17 0
30 5 30 10 0 6 -4 10 -10 10 -5 0 -10 23 -10 50 0 38 4 50 15 50 8 0 15 -9 15
-21 0 -11 5 -17 10 -14 6 3 10 17 10 31 0 23 -3 24 -60 24 l-60 0 0 -31z"/>
<path d="M590 900 c0 -5 5 -10 10 -10 6 0 10 -22 10 -50 0 -43 -3 -50 -20 -50
-16 0 -20 7 -20 34 0 43 -13 53 -76 55 l-52 1 6 -45 c4 -41 3 -45 -17 -45 -17
0 -21 6 -21 33 0 18 -5 38 -12 45 -15 15 -64 16 -73 2 -4 -6 8 -10 29 -10 20
0 36 -4 36 -10 0 -5 -9 -10 -21 -10 -49 0 -84 -52 -41 -63 37 -10 162 -8 162
3 0 5 -5 10 -11 10 -14 0 -7 63 9 68 8 2 12 -10 12 -42 0 -32 4 -46 13 -46 10
0 13 13 13 41 -1 25 4 44 12 46 8 3 12 -9 12 -41 l0 -46 69 0 c50 0 74 4 85
16 20 19 20 28 2 43 -8 7 -12 21 -9 31 8 32 -15 50 -63 50 -24 0 -44 -4 -44
-10z m88 -27 c-2 -10 -13 -19 -26 -21 -17 -3 -22 2 -22 17 0 16 6 21 26 21 19
0 25 -5 22 -17z m11 -56 c14 -18 4 -27 -31 -27 -21 0 -28 5 -28 20 0 24 41 28
59 7z m-299 -7 c0 -11 -48 -25 -56 -17 -4 3 -3 10 1 16 8 14 55 14 55 1z"/>
<path d="M182 864 c-59 -41 10 -116 82 -88 30 11 16 22 -22 17 -27 -4 -42 -1
-51 11 -12 14 -8 16 38 16 38 0 51 4 51 14 0 17 -38 46 -60 46 -9 0 -26 -7
-38 -16z m68 -14 c11 -7 3 -10 -30 -10 -33 0 -41 3 -30 10 8 5 22 10 30 10 8
0 22 -5 30 -10z"/>
<path d="M750 870 c0 -5 5 -10 10 -10 6 0 10 -16 10 -35 0 -24 -5 -35 -15 -35
-8 0 -15 -4 -15 -10 0 -5 23 -10 50 -10 28 0 50 5 50 10 0 6 -11 10 -25 10
-20 0 -25 5 -25 25 0 27 30 48 54 39 9 -3 16 -1 16 5 0 19 -29 24 -47 10 -13
-11 -17 -11 -20 -1 -5 14 -43 17 -43 2z"/>
<path d="M900 870 c0 -5 7 -10 15 -10 10 0 15 -11 15 -35 0 -28 -4 -35 -20
-35 -11 0 -20 -4 -20 -10 0 -5 25 -10 55 -10 30 0 55 5 55 10 0 6 -11 10 -25
10 -23 0 -25 4 -25 45 0 41 -2 45 -25 45 -14 0 -25 -4 -25 -10z"/>
<path d="M1186 861 c-35 -39 -2 -98 49 -89 20 4 25 2 23 -11 -2 -9 -15 -17
-31 -19 -31 -4 -37 -22 -6 -22 46 0 59 17 59 80 0 33 4 60 10 60 6 0 10 4 10
9 0 17 -98 10 -114 -8z m65 -17 c17 -21 0 -49 -32 -49 -24 0 -36 23 -25 51 7
19 40 18 57 -2z"/>
<path d="M1332 864 c-59 -41 10 -116 82 -88 30 11 16 22 -22 17 -27 -4 -42 -1
-51 11 -12 14 -8 16 38 16 38 0 51 4 51 14 0 17 -38 46 -60 46 -9 0 -26 -7
-38 -16z m68 -14 c11 -7 3 -10 -30 -10 -33 0 -41 3 -30 10 8 5 22 10 30 10 8
0 22 -5 30 -10z"/>
<path d="M440 684 c-25 -20 -47 -37 -49 -39 -6 -7 113 -63 168 -79 65 -19 208
-20 266 -2 l40 12 -60 8 c-76 10 -195 56 -262 101 -29 19 -54 35 -55 34 -2 0
-23 -16 -48 -35z"/>
<path d="M1047 668 l-38 -33 3 -213 3 -213 38 45 37 45 -2 201 -3 201 -38 -33z"/>
<path d="M380 403 l0 -213 50 0 c49 0 50 0 50 31 0 83 49 162 123 198 141 68
307 -38 307 -196 0 -32 2 -33 40 -33 l40 0 0 215 0 214 -36 -24 c-136 -92
-339 -97 -509 -11 l-65 33 0 -214z"/>
</g>
</svg>
